<svg xmlns="http://www.w3.org/2000/svg" width="512" height="512" viewBox="0 0 512 512"><rect width="512" height="512" fill="#71382f"/><svg xmlns="http://www.w3.org/2000/svg" width="280" height="280" viewBox="0 0 24 24" fill="none" stroke="#fff0d1" stroke-width="1.6" stroke-linecap="round" stroke-linejoin="round" class="lucide lucide-flower-2" aria-hidden="true" x="116" y="116"><path d="M12 5a3 3 0 1 1 3 3m-3-3a3 3 0 1 0-3 3m3-3v1M9 8a3 3 0 1 0 3 3M9 8h1m5 0a3 3 0 1 1-3 3m3-3h-1m-2 3v-1"></path><circle cx="12" cy="8" r="2"></circle><path d="M12 10v12"></path><path d="M12 22c4.2 0 7-1.667 7-5-4.2 0-7 1.667-7 5Z"></path><path d="M12 22c-4.2 0-7-1.667-7-5 4.2 0 7 1.667 7 5Z"></path></svg></svg>